<svg width="16" height="16" viewBox="0 0 16 16" fill="none" xmlns="http://www.w3.org/2000/svg">
<path fill-rule="evenodd" clip-rule="evenodd" d="M8.07109 14.7483C11.8647 14.7483 14.94 11.6729 14.94 7.87932C14.94 4.08571 11.8647 1.01038 8.07109 1.01038C4.27748 1.01038 1.20215 4.08571 1.20215 7.87932C1.20215 11.6729 4.27748 14.7483 8.07109 14.7483Z" stroke="#333333" stroke-width="0.858618"/>
<path fill-rule="evenodd" clip-rule="evenodd" d="M8.07093 9.40578C9.75698 9.40578 11.1238 8.03896 11.1238 6.35291C11.1238 4.66686 9.75698 3.30005 8.07093 3.30005C6.38488 3.30005 5.01807 4.66686 5.01807 6.35291C5.01807 8.03896 6.38488 9.40578 8.07093 9.40578Z" stroke="#333333" stroke-width="0.858618"/>
<path d="M12.6426 12.9021C12.5481 11.0336 11.6304 9.42327 10.3066 8.55786" stroke="#333333" stroke-width="0.858618"/>
<path d="M6.05474 8.42371C4.6378 9.23563 3.63306 10.8767 3.50537 12.8045" stroke="#333333" stroke-width="0.858618"/>
</svg>
