<svg width="18" height="14" viewBox="0 0 18 14" fill="none" xmlns="http://www.w3.org/2000/svg">
<rect x="2.44629" y="2.6217" width="10.0119" height="8.10978" stroke="#333333" stroke-width="0.858618" stroke-linejoin="round"/>
<path fill-rule="evenodd" clip-rule="evenodd" d="M14.7197 4.92175H12.4546V10.7315H15.9326V7.78677L14.7197 4.92175Z" stroke="#333333" stroke-width="0.858618" stroke-linejoin="round"/>
<path d="M4.86525 12.5928C5.65729 12.5928 6.29935 11.9559 6.29935 11.1702C6.29935 10.3846 5.65729 9.74768 4.86525 9.74768C4.07322 9.74768 3.43115 10.3846 3.43115 11.1702C3.43115 11.9559 4.07322 12.5928 4.86525 12.5928Z" fill="white" stroke="#333333" stroke-width="0.858618"/>
<path d="M13.2788 12.5928C14.0709 12.5928 14.7129 11.9559 14.7129 11.1702C14.7129 10.3846 14.0709 9.74768 13.2788 9.74768C12.4868 9.74768 11.8447 10.3846 11.8447 11.1702C11.8447 11.9559 12.4868 12.5928 13.2788 12.5928Z" fill="white" stroke="#333333" stroke-width="0.858618"/>
<path d="M15.9326 7.78667H12.4546" stroke="#333333" stroke-width="0.858618"/>
</svg>
